#!OML:ASF E:/inclinewalkrobotboard/Project1/Captureday1/Session1/subject1.ASF
:FULLY-SPECIFIED
:DEGREES
313
root 0 0 0 1.7308505235398965 -10.816752387426401 0.80960906506736
lowerback -0.07823631253299723 -1.5623769537464864 -2.5893938730597803
upperback -0.7008637954575752 -2.0482493724638964 1.7940855433672076
thorax -0.4884808215049804 -0.999200323336277 3.2551538333975056
lowerneck -24.518841119612958 -1.6296016930132922 -7.620990660674643
upperneck 28.621500443065266 0.36066667280753073 1.8177953960404583
head 13.761566441136264 -0.6169298001015275 2.1924794840219297
rclavicle -1.1366236468598761E-14 1.0206161209682241E-15
rhumerus -31.11709846759637 -0.15638503682090832 -81.57926697146166
rradius 31.435255729734877
rwrist 18.431349737987702
rhand -18.50271754397417 9.205705882991143
rfingers 7.125019999999936
rthumb 7.783708066591537 -20.664954761590213
lclavicle -3.3953641224732518E-15 5.13428914100401E-16
lhumerus -19.332996186924248 -1.0374726617401686 90.47252918338631
lradius 63.90960963826732
lwrist 1.2640082490766074
lhand -28.84109344054672 20.487084187973206
lfingers 7.125020000000027
lthumb -2.185471257373859 50.44219230010245
rfemur 2.570430727601517 3.5333325454506372 25.849609604418447
rtibia 55.52957416274837
rfoot 4.0472422387808855 1.070261165874427
rtoes 1.5885949642954604
lfemur -25.659335472716577 -4.081647540916949 -14.311877595820022
ltibia 28.188742544685372
lfoot -1.570818508219613 -1.7779513398104667
ltoes 3.3550737984974415
314
root 0 0 0 1.7469851753991417 -10.883949320779593 0.8373909368108503
lowerback -0.14911847421798274 -1.5930875303237282 -2.6186099349760545
upperback -0.6940423882825286 -2.089375656187319 1.7483283455093603
thorax -0.4393573437776146 -1.0198532676012253 3.2232095037291373
lowerneck -24.624691877046484 -1.641087120682835 -7.667235533959682
upperneck 28.64809523915058 0.3598632785373189 1.824600281976749
head 13.790828921184126 -0.6147173189588362 2.1977268401742824
rclavicle -1.0442396763861749E-14 7.144589591557276E-16
rhumerus -31.460667960852614 -1.268534486510319 -81.36476885382386
rradius 31.182506553242664
rwrist 18.757558347257174
rhand -18.242162308154708 9.107399281126085
rfingers 7.125019999999935
rthumb 8.033731316390233 -20.7440109591209
lclavicle -3.1970816439824053E-15 4.820497704868622E-16
lhumerus -19.09711492628029 -0.9144404463352931 90.40856217978879
lradius 63.88799936451893
lwrist 1.2032136345978661
lhand -28.89547025771077 20.449519712263914
lfingers 7.125020000000025
lthumb -2.2381061206291983 50.40079697465476
rfemur -6.748598144871698 2.475168458612343 24.401455484093603
rtibia 63.18737049036403
rfoot 8.466828561577685 -1.0391989970351774
rtoes 10.386525635130141
lfemur -20.425143062394575 -3.167671230503462 -19.03493290629558
ltibia 32.60411875044028
lfoot -2.1017427093859657 -4.349332405441063
ltoes 8.029364911418055
315
root 0 0 0 1.7849767285260139 -10.900959076377639 0.8522752776018064
lowerback -0.19042546782665037 -1.6195807218873004 -2.649099646388556
upperback -0.6479922342086232 -2.1249396781870127 1.7153397710890008
thorax -0.3689375417768208 -1.039398135480945 3.205891801954487
lowerneck -24.60483809224618 -1.6356646202201568 -7.7392723546387385
upperneck 28.66882272758891 0.35442507612697494 1.8816129547537381
head 13.77828526493731 -0.6041041306478262 2.222971726787188
rclavicle -7.066014313205972E-15 1.1380153953113653E-15
rhumerus -31.992174758147264 -3.0562675312123035 -81.1022573807616
rradius 30.813671538336813
rwrist 19.25895166774737
rhand -17.849096454777143 8.9854291916377
rfingers 7.125019999999932
rthumb 8.413118928652636 -20.849056356213886
lclavicle -2.4263844858715325E-15 8.951619462085288E-16
lhumerus -19.285282321274757 -1.6569827562300903 90.37628432077511
lradius 64.18427057845918
lwrist 1.4924262637752475
lhand -28.74300105695199 20.629979680436392
lfingers 7.125020000000025
lthumb -2.095810487212896 50.599699192102534
rfemur -11.57133877096653 1.0543046798341296 21.724831386522855
rtibia 70.78240019779837
rfoot 4.148928659106613 -4.320914678582867
rtoes 10.619041474696008
lfemur -15.77149245122925 -2.979014682940557 -22.314955248865406
ltibia 31.183501091856456
lfoot -5.633038111489253 -3.4430248195646547
ltoes 9.79638572306502
316
root 0 0 0 1.815530029038983 -10.872052671479105 0.8619864970524865
lowerback -0.18988624353197903 -1.6274542535205057 -2.680467665837941
upperback -0.6113888482549314 -2.136671642431734 1.7081398660473424
thorax -0.33164152501049815 -1.0463902319299117 3.2170319183377036
lowerneck -24.572901351066 -1.6342773959535681 -7.7953568648462115
upperneck 28.43993292895034 0.33040656717860484 1.9833504652002083
head 13.674101959173136 -0.5911916481681931 2.2559542487199264
rclavicle -5.19865865543836E-15 1.238841061310771E-15
rhumerus -32.49949995798672 -4.495951399396029 -80.79286265608081
rradius 30.4469874572444
rwrist 19.72389589183347
rhand -17.524689096815585 8.869347830188548
rfingers 7.125019999999932
rthumb 8.726173367095285 -20.954306925727952
lclavicle -1.923440589245467E-15 1.16137677973707E-15
lhumerus -19.417577854018077 -2.4978189703980065 90.38130052708965
lradius 64.52101425036788
lwrist 1.7789550090599513
lhand -28.656250385571393 20.88591491016891
lfingers 7.125020000000025
lthumb -2.0153895105081796 50.87054119238432
rfemur -18.023850553666918 -0.29177663964483713 21.114156669205535
rtibia 72.74884892818773
rfoot -1.293129990275677 -6.273424291330958
rtoes 7.741362872244839
lfemur -9.782978970350987 -3.3400144927928404 -25.61841037938803
ltibia 26.484208310567247
lfoot -11.629222724824672 -0.9829775083979788
ltoes 9.885430088125217
317
root 0 0 0 1.8476077572391574 -10.850866947711825 0.8794457477004978
lowerback -0.20828421263631625 -1.6413361642479314 -2.717617679006835
upperback -0.5810326322268848 -2.1555444581068888 1.7112507037652356
thorax -0.2907473842875532 -1.057521791339355 3.241131303657859
lowerneck -24.626867901057352 -1.6477876905169215 -7.860875113702479
upperneck 28.093377622125765 0.2896549347322488 2.1106195918110577
head 13.54558945348098 -0.5798546466707231 2.296017706351505
rclavicle -5.30610098512701E-15 1.025334703419949E-15
rhumerus -32.85047812923619 -5.022463156234402 -80.44800428008075
rradius 30.153696470174708
rwrist 19.988966059458388
rhand -17.399288103427526 8.809058604605308
rfingers 7.1250199999999335
rthumb 8.84708280231139 -21.00698046097939
lclavicle -1.6933309894560195E-15 8.379083639197221E-16
lhumerus -19.805129949486883 -3.45862108804642 90.71051493060641
lradius 64.71763104010746
lwrist 1.9153040330045266
lhand -28.72249756802853 20.96043229199823
lfingers 7.125020000000025
lthumb -2.08378193956964 50.95081223732901
rfemur -25.251315042581925 -0.9807672399338827 20.46096689987546
rtibia 69.47493972006414
rfoot -4.646220631529486 -6.985977627406019
rtoes 5.111577271988725
lfemur -4.181053833052369 -3.5263452490115963 -27.970030764954924
ltibia 22.935505256110627
lfoot -15.855276469229583 0.2526400367837267
ltoes 8.201010034734749
318
root 0 0 0 1.8897529495655563 -10.869565230447435 0.9101638944939546
lowerback -0.26625356635715236 -1.6738319972700413 -2.7551873886270326
upperback -0.5453746398536995 -2.198725277848324 1.7103980007431265
thorax -0.22085974051690715 -1.081701802486253 3.260506408985085
lowerneck -24.809235819409825 -1.6786182667158451 -7.93796925013996
upperneck 27.751119226245606 0.2394861942285823 2.2286979975622865
head 13.445043012001229 -0.5729016946151284 2.333641432934848
rclavicle -4.815394661631856E-15 9.162391331802646E-16
rhumerus -33.14000071113781 -5.099667027061301 -80.06530600859033
rradius 29.87143744162722
rwrist 20.167827809500846
rhand -17.371441418728807 8.78081888740775
rfingers 7.125019999999935
rthumb 8.87410938186872 -21.027346845530047
lclavicle -2.140894957816025E-15 5.132845784126529E-16
lhumerus -20.35482578022751 -4.624040498484569 91.09934348877077
lradius 64.95336590101148
lwrist 2.0578149248252964
lhand -28.783860448297297 20.989772798249007
lfingers 7.125020000000024
lthumb -2.1479028219222256 50.98632163068503
rfemur -28.13318325018045 -0.6483895263092787 19.691956101540754
rtibia 63.64969133482685
rfoot -5.399437232208715 -7.684609472850031
rtoes 2.9157440266969434
lfemur 0.5883932428106818 -3.4127672289963824 -29.52032410477205
ltibia 21.5287947873554
lfoot -18.58285621352149 0.06971231615235318
ltoes 5.428206141352517
319
root 0 0 0 1.9357424912781904 -10.919674073331725 0.9440540108950252
lowerback -0.34217098665311285 -1.7172086809133562 -2.7838066749549073
upperback -0.5068492747256266 -2.256211160284302 1.7030306358217033
thorax -0.13624124854642405 -1.1131003463306324 3.267526288329699
lowerneck -25.041640261992356 -1.7102861877396491 -8.006379705338128
upperneck 27.535937091350227 0.20215252777067816 2.3007754581622004
head 13.403596235669827 -0.5690334796411577 2.3583121345345814
rclavicle -3.2613102767939605E-15 7.902121593438793E-16
rhumerus -33.40812245269111 -5.012656858211753 -79.64697152306853
rradius 29.565082798531208
rwrist 20.32216070828931
rhand -17.37369488082586 8.7720807117359
rfingers 7.125019999999938
rthumb 8.871837200768487 -21.025775226654904
lclavicle -1.7275811914297616E-15 5.928868074018566E-16
lhumerus -20.672903244955236 -5.885084224323517 91.29403929644678
lradius 65.37534617175689
lwrist 2.3272711551782996
lhand -28.767754851938136 21.18524167017227
lfingers 7.125020000000023
lthumb -2.1383847837953356 51.19551644356295
rfemur -30.62052931533635 0.3890460046644062 18.10080763290584
rtibia 54.31184343665504
rfoot -5.499143373046962 -8.992126151545559
rtoes 0.3591441932501529
lfemur 4.2751682424940824 -3.1782461340214714 -30.471651992537122
ltibia 20.695004417753207
lfoot -20.05522047182712 -0.49150044594517617
ltoes 2.7667340567788976
320
root 0 0 0 1.9819552778903127 -10.967838634214608 0.9767340856457102
lowerback -0.40519856840474056 -1.7594530953594583 -2.805777759119089
upperback -0.4676185429847082 -2.3120249990142 1.70025625422832
thorax -0.05681934853577775 -1.143781798407619 3.2755963670666604
lowerneck -25.2933802228366 -1.738530291498638 -8.057498779723316
upperneck 27.318911018450436 0.17326654727618884 2.3538365706907536
head 13.367404722206839 -0.5639393754260716 2.375935493102633
rclavicle -6.931419199480075E-16 2.3510610823488714E-16
rhumerus -33.648245209839494 -4.688986974741312 -79.1566366285754
rradius 29.217002882452917
rwrist 20.411402497890645
rhand -17.42247130162428 8.813210464691128
rfingers 7.125019999999938
rthumb 8.824307193739484 -20.97398883071654
lclavicle -7.730126893029357E-17 5.520832822228296E-16
lhumerus -20.813110070417753 -7.1013937223595205 91.34709559865402
lradius 65.90545932170059
lwrist 2.6689509772208484
lhand -28.715469277549722 21.579034752511088
lfingers 7.125020000000023
lthumb -2.0918926963909827 51.60608545829645
rfemur -32.497073375791075 2.032578873343059 16.96086786249705
rtibia 42.12961971900458
rfoot -5.653796663710274 -10.855381833771027
rtoes -2.116953302346068
lfemur 8.32562743649949 -3.0057222083432165 -31.16090574992416
ltibia 19.70506630260915
lfoot -20.618153488131256 -1.429468205190732
ltoes -0.344830750807013
